# Wavefront OBJ file automatically generated by Tiled2Unity

# Vertices (Count = 36)
v -12.8 -16 0
v -16 -16 0
v -16 -12.8 0
v -12.8 -12.8 0
v -9.6 -16 0
v -9.6 -12.8 0
v -6.4 -16 0
v -6.4 -12.8 0
v -3.2 -16 0
v -3.2 -12.8 0
v 0 -16 0
v 0 -12.8 0
v -16 -9.6 0
v -12.8 -9.6 0
v -9.6 -9.6 0
v -6.4 -9.6 0
v -3.2 -9.6 0
v 0 -9.6 0
v -16 -6.4 0
v -12.8 -6.4 0
v -9.6 -6.4 0
v -6.4 -6.4 0
v -3.2 -6.4 0
v 0 -6.4 0
v -16 -3.2 0
v -12.8 -3.2 0
v -9.6 -3.2 0
v -6.4 -3.2 0
v -3.2 -3.2 0
v 0 -3.2 0
v -16 0 0
v -12.8 0 0
v -9.6 0 0
v -6.4 0 0
v -3.2 0 0
v 0 0 0

# Texture cooridinates (Count = 4)
vt 0.06262207 0.952503
vt 0.09362793 0.952503
vt 0.09362793 0.9681319
vt 0.06262207 0.9681319

# Normal
vn 0 0 -1

# Groups (Count = 1)

g mesh_0001
f 1/1/1 2/2/1 3/3/1 4/4/1
f 5/1/1 1/2/1 4/3/1 6/4/1
f 7/1/1 5/2/1 6/3/1 8/4/1
f 9/1/1 7/2/1 8/3/1 10/4/1
f 11/1/1 9/2/1 10/3/1 12/4/1
f 4/1/1 3/2/1 13/3/1 14/4/1
f 6/1/1 4/2/1 14/3/1 15/4/1
f 8/1/1 6/2/1 15/3/1 16/4/1
f 10/1/1 8/2/1 16/3/1 17/4/1
f 12/1/1 10/2/1 17/3/1 18/4/1
f 14/1/1 13/2/1 19/3/1 20/4/1
f 15/1/1 14/2/1 20/3/1 21/4/1
f 16/1/1 15/2/1 21/3/1 22/4/1
f 17/1/1 16/2/1 22/3/1 23/4/1
f 18/1/1 17/2/1 23/3/1 24/4/1
f 20/1/1 19/2/1 25/3/1 26/4/1
f 21/1/1 20/2/1 26/3/1 27/4/1
f 22/1/1 21/2/1 27/3/1 28/4/1
f 23/1/1 22/2/1 28/3/1 29/4/1
f 24/1/1 23/2/1 29/3/1 30/4/1
f 26/1/1 25/2/1 31/3/1 32/4/1
f 27/1/1 26/2/1 32/3/1 33/4/1
f 28/1/1 27/2/1 33/3/1 34/4/1
f 29/1/1 28/2/1 34/3/1 35/4/1
f 30/1/1 29/2/1 35/3/1 36/4/1

