# Wavefront OBJ file automatically generated by Tiled2Unity

# Vertices (Count = 16)
v -6.4 -9.6 0
v -9.6 -9.6 0
v -9.6 -6.4 0
v -6.4 -6.4 0
v -3.2 -9.6 0
v -3.2 -6.4 0
v 0 -9.6 0
v 0 -6.4 0
v -9.6 -3.2 0
v -6.4 -3.2 0
v -3.2 -3.2 0
v 0 -3.2 0
v -9.6 0 0
v -6.4 0 0
v -3.2 0 0
v 0 0 0

# Texture cooridinates (Count = 4)
vt 0.03137207 0.7937729
vt 0.06237793 0.7937729
vt 0.06237793 0.8094018
vt 0.03137207 0.8094018

# Normal
vn 0 0 -1

# Groups (Count = 1)

g mesh_0001
f 1/1/1 2/2/1 3/3/1 4/4/1
f 5/1/1 1/2/1 4/3/1 6/4/1
f 7/1/1 5/2/1 6/3/1 8/4/1
f 4/1/1 3/2/1 9/3/1 10/4/1
f 6/1/1 4/2/1 10/3/1 11/4/1
f 8/1/1 6/2/1 11/3/1 12/4/1
f 10/1/1 9/2/1 13/3/1 14/4/1
f 11/1/1 10/2/1 14/3/1 15/4/1
f 12/1/1 11/2/1 15/3/1 16/4/1

