# Wavefront OBJ file automatically generated by Tiled2Unity

# Vertices (Count = 36)
v -12.8 -16 0
v -16 -16 0
v -16 -12.8 0
v -12.8 -12.8 0
v -9.6 -16 0
v -9.6 -12.8 0
v -6.4 -16 0
v -6.4 -12.8 0
v -3.2 -16 0
v -3.2 -12.8 0
v 0 -16 0
v 0 -12.8 0
v -16 -9.6 0
v -12.8 -9.6 0
v -9.6 -9.6 0
v -6.4 -9.6 0
v -3.2 -9.6 0
v 0 -9.6 0
v -16 -6.4 0
v -12.8 -6.4 0
v -9.6 -6.4 0
v -6.4 -6.4 0
v -3.2 -6.4 0
v 0 -6.4 0
v -16 -3.2 0
v -12.8 -3.2 0
v -9.6 -3.2 0
v -6.4 -3.2 0
v -3.2 -3.2 0
v 0 -3.2 0
v -16 0 0
v -12.8 0 0
v -9.6 0 0
v -6.4 0 0
v -3.2 0 0
v 0 0 0

# Texture cooridinates (Count = 8)
vt 0.2501221 0.889011
vt 0.2811279 0.889011
vt 0.2811279 0.9046398
vt 0.2501221 0.9046398
vt 0.2501221 0.873138
vt 0.2811279 0.873138
vt 0.2811279 0.8887668
vt 0.2501221 0.8887668

# Normal
vn 0 0 -1

# Groups (Count = 1)

g mesh_0001
f 1/1/1 2/2/1 3/3/1 4/4/1
f 5/1/1 1/2/1 4/3/1 6/4/1
f 7/1/1 5/2/1 6/3/1 8/4/1
f 9/1/1 7/2/1 8/3/1 10/4/1
f 11/1/1 9/2/1 10/3/1 12/4/1
f 4/5/1 3/6/1 13/7/1 14/8/1
f 6/5/1 4/6/1 14/7/1 15/8/1
f 8/5/1 6/6/1 15/7/1 16/8/1
f 10/5/1 8/6/1 16/7/1 17/8/1
f 12/5/1 10/6/1 17/7/1 18/8/1
f 14/1/1 13/2/1 19/3/1 20/4/1
f 15/1/1 14/2/1 20/3/1 21/4/1
f 16/1/1 15/2/1 21/3/1 22/4/1
f 17/1/1 16/2/1 22/3/1 23/4/1
f 18/1/1 17/2/1 23/3/1 24/4/1
f 20/5/1 19/6/1 25/7/1 26/8/1
f 21/5/1 20/6/1 26/7/1 27/8/1
f 22/5/1 21/6/1 27/7/1 28/8/1
f 23/5/1 22/6/1 28/7/1 29/8/1
f 24/5/1 23/6/1 29/7/1 30/8/1
f 26/1/1 25/2/1 31/3/1 32/4/1
f 27/1/1 26/2/1 32/3/1 33/4/1
f 28/1/1 27/2/1 33/3/1 34/4/1
f 29/1/1 28/2/1 34/3/1 35/4/1
f 30/1/1 29/2/1 35/3/1 36/4/1

